# xmcd CD database file
# Copyright (C) 1996 Ti Kan
#
# Track frame offsets:
#  150
#  16947
#  30868
#  45075
#  59045
#  75290
#  86351
#  99746
#  121385
#  137415
#  156853
#  175561
#  187590
#  200396
#  221312
#  238299
#
# Disc length: 3374 seconds
#
# Revision: 1
# Processed by: cddbd v1.4b41PL1 Copyright (c) Steve Scherf et al.
# Submitted via: CDWizzard Release:4.15
#
DISCID=b60d2c10
DTITLE=Jerry Hanlon and Special Friends - Jerry Hanlon and Special Friends
DYEAR=1900
DGENRE=
TTITLE0=A Better Day
TTITLE1=When She Smiled At Him
TTITLE2=The Ring My Mother Wore
TTITLE3=Big Old School Clock
TTITLE4=Sisters Lament
TTITLE5=Two Time, One Time
TTITLE6=Boy With A Future
TTITLE7=1847
TTITLE8=That Was Before I Met You
TTITLE9=Comin Down in the Rain
TTITLE10=Times Passes Slow
TTITLE11=Carlingford Bay
TTITLE12=Johnny Got Married
TTITLE13=Thank God for Small Mercies
TTITLE14=I Agree
TTITLE15=He's With Me Wherever I Go
EXTD=1997/Mfg/Dist/UAR Productions, Ltd.,\nUAR Records, Box 1264, Peoria,
EXTD=IL 61654-USA\nTel: 309-673-5755
EXTT0=Jerry Hanlon
EXTT1=Alice Holmen
EXTT2=Terry Maher
EXTT3=Jackie Nelson
EXTT4=Brendan Monaghan
EXTT5=Randy Anderson
EXTT6=Jerry Hanlon
EXTT7=Martin Doyle
EXTT8=Don Hanlon
EXTT9=Alice Holmen
EXTT10=Jerry Hanlon
EXTT11=Jackie Nelson
EXTT12=Brendan Monaghan
EXTT13=Terry Maher
EXTT14=Randy Anderson
EXTT15=Jerry Hanlon
PLAYORDER=
